<?xml version="1.0" encoding="UTF-8" standalone="no"?>
<!-- Generator: Adobe Illustrator 15.0.0, SVG Export Plug-In . SVG Version: 6.00 Build 0)  -->

<svg
   xmlns:dc="http://purl.org/dc/elements/1.1/"
   xmlns:cc="http://creativecommons.org/ns#"
   xmlns:rdf="http://www.w3.org/1999/02/22-rdf-syntax-ns#"
   xmlns:svg="http://www.w3.org/2000/svg"
   xmlns="http://www.w3.org/2000/svg"
   xmlns:sodipodi="http://sodipodi.sourceforge.net/DTD/sodipodi-0.dtd"
   xmlns:inkscape="http://www.inkscape.org/namespaces/inkscape"
   version="1.1"
   id="Layer_1"
   x="0px"
   y="0px"
   width="512px"
   height="512px"
   viewBox="0 0 512 512"
   enable-background="new 0 0 512 512"
   xml:space="preserve"
   inkscape:version="0.48.2 r9819"
   sodipodi:docname="blogger2.svg"
   inkscape:export-filename="/home/atila/workspace/mad3-mobile/res/drawable-xhdpi/ic_launcher_blogger.png"
   inkscape:export-xdpi="16.879999"
   inkscape:export-ydpi="16.879999"><metadata
   id="metadata82"><rdf:RDF><cc:Work
       rdf:about=""><dc:format>image/svg+xml</dc:format><dc:type
         rdf:resource="http://purl.org/dc/dcmitype/StillImage" /><dc:title></dc:title></cc:Work></rdf:RDF></metadata><defs
   id="defs80" /><sodipodi:namedview
   pagecolor="#ffffff"
   bordercolor="#666666"
   borderopacity="1"
   objecttolerance="10"
   gridtolerance="10"
   guidetolerance="10"
   inkscape:pageopacity="0"
   inkscape:pageshadow="2"
   inkscape:window-width="1280"
   inkscape:window-height="946"
   id="namedview78"
   showgrid="false"
   inkscape:zoom="1.0109417"
   inkscape:cx="262.08419"
   inkscape:cy="181.54115"
   inkscape:window-x="0"
   inkscape:window-y="25"
   inkscape:window-maximized="1"
   inkscape:current-layer="Layer_1" />
<g
   id="Grid_1_">
	<g
   id="Layer_1_1_"
   transform="translate(-540.20339,-4.3389783)">
		<g
   id="Grid">
			<g
   id="g6">
				<rect
   x="0"
   stroke-miterlimit="10"
   width="512"
   height="512"
   id="rect8"
   y="0"
   style="fill:none;stroke:#a9ccdb;stroke-miterlimit:10" />
				<line
   stroke-miterlimit="10"
   x1="0"
   y1="480"
   x2="512"
   y2="480"
   id="line10"
   style="fill:none;stroke:#a9ccdb;stroke-miterlimit:10" />
				<line
   stroke-miterlimit="10"
   x1="0"
   y1="448"
   x2="512"
   y2="448"
   id="line12"
   style="fill:none;stroke:#a9ccdb;stroke-miterlimit:10" />
				<line
   stroke-miterlimit="10"
   x1="0"
   y1="416"
   x2="512"
   y2="416"
   id="line14"
   style="fill:none;stroke:#a9ccdb;stroke-miterlimit:10" />
				<line
   stroke-miterlimit="10"
   x1="0"
   y1="384"
   x2="512"
   y2="384"
   id="line16"
   style="fill:none;stroke:#a9ccdb;stroke-miterlimit:10" />
				<line
   stroke-miterlimit="10"
   x1="0"
   y1="352"
   x2="512"
   y2="352"
   id="line18"
   style="fill:none;stroke:#a9ccdb;stroke-miterlimit:10" />
				<line
   stroke-miterlimit="10"
   x1="0"
   y1="320"
   x2="512"
   y2="320"
   id="line20"
   style="fill:none;stroke:#a9ccdb;stroke-miterlimit:10" />
				<line
   stroke-miterlimit="10"
   x1="0"
   y1="288"
   x2="512"
   y2="288"
   id="line22"
   style="fill:none;stroke:#a9ccdb;stroke-miterlimit:10" />
				<line
   stroke-miterlimit="10"
   x1="0"
   y1="256"
   x2="512"
   y2="256"
   id="line24"
   style="fill:none;stroke:#a9ccdb;stroke-miterlimit:10" />
				<line
   stroke-miterlimit="10"
   x1="0"
   y1="224"
   x2="512"
   y2="224"
   id="line26"
   style="fill:none;stroke:#a9ccdb;stroke-miterlimit:10" />
				<line
   stroke-miterlimit="10"
   x1="0"
   y1="192"
   x2="512"
   y2="192"
   id="line28"
   style="fill:none;stroke:#a9ccdb;stroke-miterlimit:10" />
				<line
   stroke-miterlimit="10"
   x1="0"
   y1="160"
   x2="512"
   y2="160"
   id="line30"
   style="fill:none;stroke:#a9ccdb;stroke-miterlimit:10" />
				<line
   stroke-miterlimit="10"
   x1="0"
   y1="128"
   x2="512"
   y2="128"
   id="line32"
   style="fill:none;stroke:#a9ccdb;stroke-miterlimit:10" />
				<line
   stroke-miterlimit="10"
   x1="0"
   y1="96"
   x2="512"
   y2="96"
   id="line34"
   style="fill:none;stroke:#a9ccdb;stroke-miterlimit:10" />
				<line
   stroke-miterlimit="10"
   x1="0"
   y1="64"
   x2="512"
   y2="64"
   id="line36"
   style="fill:none;stroke:#a9ccdb;stroke-miterlimit:10" />
				<line
   stroke-miterlimit="10"
   x1="0"
   y1="32"
   x2="512"
   y2="32"
   id="line38"
   style="fill:none;stroke:#a9ccdb;stroke-miterlimit:10" />
				<line
   stroke-miterlimit="10"
   x1="480"
   y1="0"
   x2="480"
   y2="512"
   id="line40"
   style="fill:none;stroke:#a9ccdb;stroke-miterlimit:10" />
				<line
   stroke-miterlimit="10"
   x1="448"
   y1="0"
   x2="448"
   y2="512"
   id="line42"
   style="fill:none;stroke:#a9ccdb;stroke-miterlimit:10" />
				<line
   stroke-miterlimit="10"
   x1="416"
   y1="0"
   x2="416"
   y2="512"
   id="line44"
   style="fill:none;stroke:#a9ccdb;stroke-miterlimit:10" />
				<line
   stroke-miterlimit="10"
   x1="384"
   y1="0"
   x2="384"
   y2="512"
   id="line46"
   style="fill:none;stroke:#a9ccdb;stroke-miterlimit:10" />
				<line
   stroke-miterlimit="10"
   x1="352"
   y1="0"
   x2="352"
   y2="512"
   id="line48"
   style="fill:none;stroke:#a9ccdb;stroke-miterlimit:10" />
				<line
   stroke-miterlimit="10"
   x1="320"
   y1="0"
   x2="320"
   y2="512"
   id="line50"
   style="fill:none;stroke:#a9ccdb;stroke-miterlimit:10" />
				<line
   stroke-miterlimit="10"
   x1="288"
   y1="0"
   x2="288"
   y2="512"
   id="line52"
   style="fill:none;stroke:#a9ccdb;stroke-miterlimit:10" />
				<line
   stroke-miterlimit="10"
   x1="256"
   y1="0"
   x2="256"
   y2="512"
   id="line54"
   style="fill:none;stroke:#a9ccdb;stroke-miterlimit:10" />
				<line
   stroke-miterlimit="10"
   x1="224"
   y1="0"
   x2="224"
   y2="512"
   id="line56"
   style="fill:none;stroke:#a9ccdb;stroke-miterlimit:10" />
				<line
   stroke-miterlimit="10"
   x1="192"
   y1="0"
   x2="192"
   y2="512"
   id="line58"
   style="fill:none;stroke:#a9ccdb;stroke-miterlimit:10" />
				<line
   stroke-miterlimit="10"
   x1="160"
   y1="0"
   x2="160"
   y2="512"
   id="line60"
   style="fill:none;stroke:#a9ccdb;stroke-miterlimit:10" />
				<line
   stroke-miterlimit="10"
   x1="128"
   y1="0"
   x2="128"
   y2="512"
   id="line62"
   style="fill:none;stroke:#a9ccdb;stroke-miterlimit:10" />
				<line
   stroke-miterlimit="10"
   x1="96"
   y1="0"
   x2="96"
   y2="512"
   id="line64"
   style="fill:none;stroke:#a9ccdb;stroke-miterlimit:10" />
				<line
   stroke-miterlimit="10"
   x1="64"
   y1="0"
   x2="64"
   y2="512"
   id="line66"
   style="fill:none;stroke:#a9ccdb;stroke-miterlimit:10" />
				<line
   stroke-miterlimit="10"
   x1="32"
   y1="0"
   x2="32"
   y2="512"
   id="line68"
   style="fill:none;stroke:#a9ccdb;stroke-miterlimit:10" />
			</g>
		</g>
	</g>
</g>
<rect
   style="fill:#ffffff;fill-opacity:1;stroke:none"
   id="rect3020"
   width="433.2594"
   height="409.48364"
   x="41.545422"
   y="52.068352"
   ry="0" /><g
   id="g70"
   style="fill:#ff8800;fill-opacity:1"
   transform="matrix(0.953125,0,0,0.953125,12,12)">
	<path
   d="m 184,208 h 72 c 13.199,0 24,-10.8 24,-24 0,-13.2 -10.801,-24 -24,-24 h -72 c -13.2,0 -24,10.8 -24,24 0,13.2 10.801,24 24,24 z"
   id="path72"
   style="fill:#ff8800;fill-opacity:1"
   inkscape:connector-curvature="0" />
	<path
   d="M 328,304 H 184 c -13.2,0 -24,10.8 -24,24 0,13.199 10.8,24 24,24 h 144 c 13.199,0 24,-10.801 24,-24 0,-13.2 -10.801,-24 -24,-24 z"
   id="path74"
   style="fill:#ff8800;fill-opacity:1"
   inkscape:connector-curvature="0" />
	<path
   d="M 426.674,0 H 85.325 C 38.202,0 0,38.209 0,85.341 V 426.659 C 0,473.792 38.202,512 85.325,512 h 341.348 c 47.125,0 85.324,-38.208 85.324,-85.341 L 512,85.341 C 512,38.209 473.798,0 426.674,0 z M 448,324.049 C 448,392.544 392.257,448 323.278,448 H 188.869 C 119.941,448 64,392.544 64,324.049 V 188 C 64.048,119.5 119.94,64 188.869,64 h 62.934 c 68.976,0 124.199,51.5 124.197,120 0.901,12.847 12.461,24 25.646,24 h 0.449 21.078 C 436.959,208 448,222.467 448,236.156 v 87.893 z"
   id="path76"
   style="fill:#ff8800;fill-opacity:1"
   inkscape:connector-curvature="0" />
</g>
</svg>