<?xml version="1.0" encoding="UTF-8" standalone="no"?>
<!-- Generator: Adobe Illustrator 15.0.0, SVG Export Plug-In . SVG Version: 6.00 Build 0)  -->

<svg
   xmlns:dc="http://purl.org/dc/elements/1.1/"
   xmlns:cc="http://creativecommons.org/ns#"
   xmlns:rdf="http://www.w3.org/1999/02/22-rdf-syntax-ns#"
   xmlns:svg="http://www.w3.org/2000/svg"
   xmlns="http://www.w3.org/2000/svg"
   xmlns:sodipodi="http://sodipodi.sourceforge.net/DTD/sodipodi-0.dtd"
   xmlns:inkscape="http://www.inkscape.org/namespaces/inkscape"
   version="1.1"
   id="Layer_1"
   x="0px"
   y="0px"
   width="512px"
   height="512px"
   viewBox="0 0 512 512"
   enable-background="new 0 0 512 512"
   xml:space="preserve"
   inkscape:version="0.48.3.1 r9886"
   sodipodi:docname="feed2.svg"
   inkscape:export-filename="/home/atila/workspace/mad3-muxie/res/drawable-ldpi/ic_launcher_custom.png"
   inkscape:export-xdpi="6.3299999"
   inkscape:export-ydpi="6.3299999"><metadata
   id="metadata76"><rdf:RDF><cc:Work
       rdf:about=""><dc:format>image/svg+xml</dc:format><dc:type
         rdf:resource="http://purl.org/dc/dcmitype/StillImage" /><dc:title></dc:title></cc:Work></rdf:RDF></metadata><defs
   id="defs74" /><sodipodi:namedview
   pagecolor="#ffffff"
   bordercolor="#666666"
   borderopacity="1"
   objecttolerance="10"
   gridtolerance="10"
   guidetolerance="10"
   inkscape:pageopacity="0"
   inkscape:pageshadow="2"
   inkscape:window-width="1280"
   inkscape:window-height="943"
   id="namedview72"
   showgrid="false"
   inkscape:zoom="0.4609375"
   inkscape:cx="256"
   inkscape:cy="256"
   inkscape:window-x="0"
   inkscape:window-y="26"
   inkscape:window-maximized="1"
   inkscape:current-layer="Layer_1" />
<g
   id="Grid_1_">
	<g
   id="Layer_1_1_"
   transform="translate(-568.40678,-6.5084746)">
		<g
   id="Grid">
			<g
   id="g6">
				<rect
   x="0"
   stroke-miterlimit="10"
   width="512"
   height="512"
   id="rect8"
   y="0"
   style="fill:none;stroke:#a9ccdb;stroke-miterlimit:10" />
				<line
   stroke-miterlimit="10"
   x1="0"
   y1="480"
   x2="512"
   y2="480"
   id="line10"
   style="fill:none;stroke:#a9ccdb;stroke-miterlimit:10" />
				<line
   stroke-miterlimit="10"
   x1="0"
   y1="448"
   x2="512"
   y2="448"
   id="line12"
   style="fill:none;stroke:#a9ccdb;stroke-miterlimit:10" />
				<line
   stroke-miterlimit="10"
   x1="0"
   y1="416"
   x2="512"
   y2="416"
   id="line14"
   style="fill:none;stroke:#a9ccdb;stroke-miterlimit:10" />
				<line
   stroke-miterlimit="10"
   x1="0"
   y1="384"
   x2="512"
   y2="384"
   id="line16"
   style="fill:none;stroke:#a9ccdb;stroke-miterlimit:10" />
				<line
   stroke-miterlimit="10"
   x1="0"
   y1="352"
   x2="512"
   y2="352"
   id="line18"
   style="fill:none;stroke:#a9ccdb;stroke-miterlimit:10" />
				<line
   stroke-miterlimit="10"
   x1="0"
   y1="320"
   x2="512"
   y2="320"
   id="line20"
   style="fill:none;stroke:#a9ccdb;stroke-miterlimit:10" />
				<line
   stroke-miterlimit="10"
   x1="0"
   y1="288"
   x2="512"
   y2="288"
   id="line22"
   style="fill:none;stroke:#a9ccdb;stroke-miterlimit:10" />
				<line
   stroke-miterlimit="10"
   x1="0"
   y1="256"
   x2="512"
   y2="256"
   id="line24"
   style="fill:none;stroke:#a9ccdb;stroke-miterlimit:10" />
				<line
   stroke-miterlimit="10"
   x1="0"
   y1="224"
   x2="512"
   y2="224"
   id="line26"
   style="fill:none;stroke:#a9ccdb;stroke-miterlimit:10" />
				<line
   stroke-miterlimit="10"
   x1="0"
   y1="192"
   x2="512"
   y2="192"
   id="line28"
   style="fill:none;stroke:#a9ccdb;stroke-miterlimit:10" />
				<line
   stroke-miterlimit="10"
   x1="0"
   y1="160"
   x2="512"
   y2="160"
   id="line30"
   style="fill:none;stroke:#a9ccdb;stroke-miterlimit:10" />
				<line
   stroke-miterlimit="10"
   x1="0"
   y1="128"
   x2="512"
   y2="128"
   id="line32"
   style="fill:none;stroke:#a9ccdb;stroke-miterlimit:10" />
				<line
   stroke-miterlimit="10"
   x1="0"
   y1="96"
   x2="512"
   y2="96"
   id="line34"
   style="fill:none;stroke:#a9ccdb;stroke-miterlimit:10" />
				<line
   stroke-miterlimit="10"
   x1="0"
   y1="64"
   x2="512"
   y2="64"
   id="line36"
   style="fill:none;stroke:#a9ccdb;stroke-miterlimit:10" />
				<line
   stroke-miterlimit="10"
   x1="0"
   y1="32"
   x2="512"
   y2="32"
   id="line38"
   style="fill:none;stroke:#a9ccdb;stroke-miterlimit:10" />
				<line
   stroke-miterlimit="10"
   x1="480"
   y1="0"
   x2="480"
   y2="512"
   id="line40"
   style="fill:none;stroke:#a9ccdb;stroke-miterlimit:10" />
				<line
   stroke-miterlimit="10"
   x1="448"
   y1="0"
   x2="448"
   y2="512"
   id="line42"
   style="fill:none;stroke:#a9ccdb;stroke-miterlimit:10" />
				<line
   stroke-miterlimit="10"
   x1="416"
   y1="0"
   x2="416"
   y2="512"
   id="line44"
   style="fill:none;stroke:#a9ccdb;stroke-miterlimit:10" />
				<line
   stroke-miterlimit="10"
   x1="384"
   y1="0"
   x2="384"
   y2="512"
   id="line46"
   style="fill:none;stroke:#a9ccdb;stroke-miterlimit:10" />
				<line
   stroke-miterlimit="10"
   x1="352"
   y1="0"
   x2="352"
   y2="512"
   id="line48"
   style="fill:none;stroke:#a9ccdb;stroke-miterlimit:10" />
				<line
   stroke-miterlimit="10"
   x1="320"
   y1="0"
   x2="320"
   y2="512"
   id="line50"
   style="fill:none;stroke:#a9ccdb;stroke-miterlimit:10" />
				<line
   stroke-miterlimit="10"
   x1="288"
   y1="0"
   x2="288"
   y2="512"
   id="line52"
   style="fill:none;stroke:#a9ccdb;stroke-miterlimit:10" />
				<line
   stroke-miterlimit="10"
   x1="256"
   y1="0"
   x2="256"
   y2="512"
   id="line54"
   style="fill:none;stroke:#a9ccdb;stroke-miterlimit:10" />
				<line
   stroke-miterlimit="10"
   x1="224"
   y1="0"
   x2="224"
   y2="512"
   id="line56"
   style="fill:none;stroke:#a9ccdb;stroke-miterlimit:10" />
				<line
   stroke-miterlimit="10"
   x1="192"
   y1="0"
   x2="192"
   y2="512"
   id="line58"
   style="fill:none;stroke:#a9ccdb;stroke-miterlimit:10" />
				<line
   stroke-miterlimit="10"
   x1="160"
   y1="0"
   x2="160"
   y2="512"
   id="line60"
   style="fill:none;stroke:#a9ccdb;stroke-miterlimit:10" />
				<line
   stroke-miterlimit="10"
   x1="128"
   y1="0"
   x2="128"
   y2="512"
   id="line62"
   style="fill:none;stroke:#a9ccdb;stroke-miterlimit:10" />
				<line
   stroke-miterlimit="10"
   x1="96"
   y1="0"
   x2="96"
   y2="512"
   id="line64"
   style="fill:none;stroke:#a9ccdb;stroke-miterlimit:10" />
				<line
   stroke-miterlimit="10"
   x1="64"
   y1="0"
   x2="64"
   y2="512"
   id="line66"
   style="fill:none;stroke:#a9ccdb;stroke-miterlimit:10" />
				<line
   stroke-miterlimit="10"
   x1="32"
   y1="0"
   x2="32"
   y2="512"
   id="line68"
   style="fill:none;stroke:#a9ccdb;stroke-miterlimit:10" />
			</g>
		</g>
	</g>
</g>
<rect
   style="fill:#ffffff;fill-opacity:1;stroke:none"
   id="rect3017"
   width="431.72882"
   height="349.28815"
   x="43.389832"
   y="82.440681"
   ry="0" /><path
   d="M 418.66984,12 H 93.342547 C 48.604766,12 12,48.605719 12,93.3435 V 418.65841 C 12,463.42383 48.605719,500 93.3435,500 H 418.66984 C 463.40762,500 500,463.42478 500,418.65841 V 93.3435 C 500,48.605719 463.40762,12 418.66984,12 z M 144.93425,408.14163 c -22.8607,0 -41.43425,-18.43916 -41.43425,-41.28366 0,-22.72441 18.57259,-41.37135 41.43425,-41.37135 22.9503,0 41.48953,18.64694 41.48953,41.37135 -9.5e-4,22.8445 -18.54019,41.28366 -41.48953,41.28366 z m 104.14034,0.35646 c 0,-38.98757 -15.1585,-75.6867 -42.63328,-103.14909 -27.50433,-27.52148 -64.03856,-42.71239 -102.89175,-42.71239 v -59.65895 c 113.25603,0 205.45849,92.1872 205.45849,205.51948 l -59.93346,9.5e-4 0,0 z m 105.87313,0 c 0,-138.70923 -112.78233,-251.5964 -251.32763,-251.5964 v -59.6885 c 171.56346,0 311.16958,139.6919 311.16958,311.28681 l -59.84195,-0.002 0,0 z"
   id="path70"
   inkscape:connector-curvature="0"
   style="fill:#d95b29;fill-opacity:1" />
</svg>