<?xml version="1.0" encoding="UTF-8" standalone="no"?>
<!-- Generator: Adobe Illustrator 15.0.0, SVG Export Plug-In . SVG Version: 6.00 Build 0)  -->

<svg
   xmlns:dc="http://purl.org/dc/elements/1.1/"
   xmlns:cc="http://creativecommons.org/ns#"
   xmlns:rdf="http://www.w3.org/1999/02/22-rdf-syntax-ns#"
   xmlns:svg="http://www.w3.org/2000/svg"
   xmlns="http://www.w3.org/2000/svg"
   xmlns:sodipodi="http://sodipodi.sourceforge.net/DTD/sodipodi-0.dtd"
   xmlns:inkscape="http://www.inkscape.org/namespaces/inkscape"
   version="1.1"
   id="Layer_1"
   x="0px"
   y="0px"
   width="512px"
   height="512px"
   viewBox="0 0 512 512"
   enable-background="new 0 0 512 512"
   xml:space="preserve"
   inkscape:version="0.48.3.1 r9886"
   sodipodi:docname="identica.svg"
   inkscape:export-filename="/home/atila/workspace/mad3-muxie/res/drawable-ldpi/ic_launcher_identica.png"
   inkscape:export-xdpi="6.3299999"
   inkscape:export-ydpi="6.3299999"><metadata
   id="metadata76"><rdf:RDF><cc:Work
       rdf:about=""><dc:format>image/svg+xml</dc:format><dc:type
         rdf:resource="http://purl.org/dc/dcmitype/StillImage" /><dc:title></dc:title></cc:Work></rdf:RDF></metadata><defs
   id="defs74"><inkscape:perspective
     sodipodi:type="inkscape:persp3d"
     inkscape:vp_x="0 : 0.5 : 1"
     inkscape:vp_y="0 : 1000 : 0"
     inkscape:vp_z="1 : 0.5 : 1"
     inkscape:persp3d-origin="0.5 : 0.33333333 : 1"
     id="perspective2824" /><inkscape:perspective
     id="perspective10"
     inkscape:persp3d-origin="372.04724 : 350.78739 : 1"
     inkscape:vp_z="744.09448 : 526.18109 : 1"
     inkscape:vp_y="0 : 1000 : 0"
     inkscape:vp_x="0 : 526.18109 : 1"
     sodipodi:type="inkscape:persp3d" /></defs><sodipodi:namedview
   pagecolor="#ffffff"
   bordercolor="#666666"
   borderopacity="1"
   objecttolerance="10"
   gridtolerance="10"
   guidetolerance="10"
   inkscape:pageopacity="0"
   inkscape:pageshadow="2"
   inkscape:window-width="1280"
   inkscape:window-height="943"
   id="namedview72"
   showgrid="false"
   inkscape:zoom="0.72070313"
   inkscape:cx="448.04124"
   inkscape:cy="186.06779"
   inkscape:window-x="0"
   inkscape:window-y="26"
   inkscape:window-maximized="1"
   inkscape:current-layer="Layer_1" />
<g
   id="Grid_1_">
	<g
   id="Layer_1_1_"
   transform="translate(-568.40678,-6.5084746)">
		<g
   id="Grid">
			<g
   id="g6">
				<rect
   x="0"
   stroke-miterlimit="10"
   width="512"
   height="512"
   id="rect8"
   y="0"
   style="fill:none;stroke:#a9ccdb;stroke-miterlimit:10" />
				<line
   stroke-miterlimit="10"
   x1="0"
   y1="480"
   x2="512"
   y2="480"
   id="line10"
   style="fill:none;stroke:#a9ccdb;stroke-miterlimit:10" />
				<line
   stroke-miterlimit="10"
   x1="0"
   y1="448"
   x2="512"
   y2="448"
   id="line12"
   style="fill:none;stroke:#a9ccdb;stroke-miterlimit:10" />
				<line
   stroke-miterlimit="10"
   x1="0"
   y1="416"
   x2="512"
   y2="416"
   id="line14"
   style="fill:none;stroke:#a9ccdb;stroke-miterlimit:10" />
				<line
   stroke-miterlimit="10"
   x1="0"
   y1="384"
   x2="512"
   y2="384"
   id="line16"
   style="fill:none;stroke:#a9ccdb;stroke-miterlimit:10" />
				<line
   stroke-miterlimit="10"
   x1="0"
   y1="352"
   x2="512"
   y2="352"
   id="line18"
   style="fill:none;stroke:#a9ccdb;stroke-miterlimit:10" />
				<line
   stroke-miterlimit="10"
   x1="0"
   y1="320"
   x2="512"
   y2="320"
   id="line20"
   style="fill:none;stroke:#a9ccdb;stroke-miterlimit:10" />
				<line
   stroke-miterlimit="10"
   x1="0"
   y1="288"
   x2="512"
   y2="288"
   id="line22"
   style="fill:none;stroke:#a9ccdb;stroke-miterlimit:10" />
				<line
   stroke-miterlimit="10"
   x1="0"
   y1="256"
   x2="512"
   y2="256"
   id="line24"
   style="fill:none;stroke:#a9ccdb;stroke-miterlimit:10" />
				<line
   stroke-miterlimit="10"
   x1="0"
   y1="224"
   x2="512"
   y2="224"
   id="line26"
   style="fill:none;stroke:#a9ccdb;stroke-miterlimit:10" />
				<line
   stroke-miterlimit="10"
   x1="0"
   y1="192"
   x2="512"
   y2="192"
   id="line28"
   style="fill:none;stroke:#a9ccdb;stroke-miterlimit:10" />
				<line
   stroke-miterlimit="10"
   x1="0"
   y1="160"
   x2="512"
   y2="160"
   id="line30"
   style="fill:none;stroke:#a9ccdb;stroke-miterlimit:10" />
				<line
   stroke-miterlimit="10"
   x1="0"
   y1="128"
   x2="512"
   y2="128"
   id="line32"
   style="fill:none;stroke:#a9ccdb;stroke-miterlimit:10" />
				<line
   stroke-miterlimit="10"
   x1="0"
   y1="96"
   x2="512"
   y2="96"
   id="line34"
   style="fill:none;stroke:#a9ccdb;stroke-miterlimit:10" />
				<line
   stroke-miterlimit="10"
   x1="0"
   y1="64"
   x2="512"
   y2="64"
   id="line36"
   style="fill:none;stroke:#a9ccdb;stroke-miterlimit:10" />
				<line
   stroke-miterlimit="10"
   x1="0"
   y1="32"
   x2="512"
   y2="32"
   id="line38"
   style="fill:none;stroke:#a9ccdb;stroke-miterlimit:10" />
				<line
   stroke-miterlimit="10"
   x1="480"
   y1="0"
   x2="480"
   y2="512"
   id="line40"
   style="fill:none;stroke:#a9ccdb;stroke-miterlimit:10" />
				<line
   stroke-miterlimit="10"
   x1="448"
   y1="0"
   x2="448"
   y2="512"
   id="line42"
   style="fill:none;stroke:#a9ccdb;stroke-miterlimit:10" />
				<line
   stroke-miterlimit="10"
   x1="416"
   y1="0"
   x2="416"
   y2="512"
   id="line44"
   style="fill:none;stroke:#a9ccdb;stroke-miterlimit:10" />
				<line
   stroke-miterlimit="10"
   x1="384"
   y1="0"
   x2="384"
   y2="512"
   id="line46"
   style="fill:none;stroke:#a9ccdb;stroke-miterlimit:10" />
				<line
   stroke-miterlimit="10"
   x1="352"
   y1="0"
   x2="352"
   y2="512"
   id="line48"
   style="fill:none;stroke:#a9ccdb;stroke-miterlimit:10" />
				<line
   stroke-miterlimit="10"
   x1="320"
   y1="0"
   x2="320"
   y2="512"
   id="line50"
   style="fill:none;stroke:#a9ccdb;stroke-miterlimit:10" />
				<line
   stroke-miterlimit="10"
   x1="288"
   y1="0"
   x2="288"
   y2="512"
   id="line52"
   style="fill:none;stroke:#a9ccdb;stroke-miterlimit:10" />
				<line
   stroke-miterlimit="10"
   x1="256"
   y1="0"
   x2="256"
   y2="512"
   id="line54"
   style="fill:none;stroke:#a9ccdb;stroke-miterlimit:10" />
				<line
   stroke-miterlimit="10"
   x1="224"
   y1="0"
   x2="224"
   y2="512"
   id="line56"
   style="fill:none;stroke:#a9ccdb;stroke-miterlimit:10" />
				<line
   stroke-miterlimit="10"
   x1="192"
   y1="0"
   x2="192"
   y2="512"
   id="line58"
   style="fill:none;stroke:#a9ccdb;stroke-miterlimit:10" />
				<line
   stroke-miterlimit="10"
   x1="160"
   y1="0"
   x2="160"
   y2="512"
   id="line60"
   style="fill:none;stroke:#a9ccdb;stroke-miterlimit:10" />
				<line
   stroke-miterlimit="10"
   x1="128"
   y1="0"
   x2="128"
   y2="512"
   id="line62"
   style="fill:none;stroke:#a9ccdb;stroke-miterlimit:10" />
				<line
   stroke-miterlimit="10"
   x1="96"
   y1="0"
   x2="96"
   y2="512"
   id="line64"
   style="fill:none;stroke:#a9ccdb;stroke-miterlimit:10" />
				<line
   stroke-miterlimit="10"
   x1="64"
   y1="0"
   x2="64"
   y2="512"
   id="line66"
   style="fill:none;stroke:#a9ccdb;stroke-miterlimit:10" />
				<line
   stroke-miterlimit="10"
   x1="32"
   y1="0"
   x2="32"
   y2="512"
   id="line68"
   style="fill:none;stroke:#a9ccdb;stroke-miterlimit:10" />
			</g>
		</g>
	</g>
</g>
<path
   style="fill:#394d86;fill-opacity:1;stroke:none;"
   d="M 93.34375 12 C 48.605969 12 12 48.605969 12 93.34375 L 12 418.65625 C 12 463.42167 48.605969 500 93.34375 500 L 418.65625 500 C 463.39403 500 500 463.42262 500 418.65625 L 500 93.34375 C 500 48.605969 463.39403 12 418.65625 12 L 93.34375 12 z "
   id="rect3017" />
<g
   transform="matrix(0.86485905,0,0,0.86485905,35.022366,85.020344)"
   id="layer1"
   inkscape:label="Calque 1"><g
     id="g3611"><g
       id="g3597"><path
         sodipodi:nodetypes="ccccccc"
         id="rect2817"
         d="m 150.52026,16.446565 110,57.142857 -4.28572,124.285718 -73.57143,48.92857 -142.857137,-5 L 56.234545,63.589429 150.52026,16.446565 z"
         style="fill:#ffffff;fill-opacity:1;stroke:none"
         inkscape:connector-curvature="0" /><path
         id="path3644"
         d="m 154.91803,6.0894123 c -72.329184,0 -130.999195,58.5169287 -130.999195,130.8462877 0,18.08226 3.614349,35.38622 10.241523,51.05436 L 9.0916875,282.76187 103.8635,257.69314 c 15.66825,6.62723 32.97204,10.24152 51.05453,10.24152 72.32918,0 130.84611,-58.66978 130.84611,-130.99896 0,-72.329359 -58.51693,-130.8462877 -130.84611,-130.8462877 z m 1.98702,40.6601547 c 49.73245,0 90.03327,40.300926 90.03327,90.033213 0,49.73229 -40.30082,90.03327 -90.03327,90.03327 -12.43311,0 -24.23113,-2.47477 -35.00443,-7.03154 l -65.270144,17.2729 17.272901,-65.11729 c -4.55666,-10.77329 -7.031378,-22.72435 -7.031378,-35.15734 0,-49.732287 40.300761,-90.033213 90.033051,-90.033213 z"
         style="fill:#9eb73f;fill-opacity:1;stroke:none"
         inkscape:connector-curvature="0" /></g><g
       id="g3603"><path
         style="fill:#ffffff;fill-opacity:1;stroke:none"
         d="m 220.94078,212.55752 71.92631,-36.26177 63.88067,49.49543 -2.17216,57.37459 -56.93024,73.39796 -87.69071,-76.39206 10.98613,-67.61415 z"
         id="path3592"
         sodipodi:nodetypes="ccccccc"
         inkscape:connector-curvature="0" /><path
         id="path3646"
         d="m 283.01279,169.95288 c -24.68517,0.92766 -48.79609,12.46704 -64.96454,33.62878 -28.74406,37.62068 -21.57075,91.40201 16.04994,120.14608 9.40522,7.18598 19.7884,12.04762 30.57165,14.8272 l 39.28434,50.74876 24.61016,-59.3087 c 9.67355,-5.51594 18.49411,-12.91198 25.68009,-22.31737 28.74406,-37.62069 21.57058,-91.40202 -16.0501,-120.14608 C 321.7352,174.956 302.21229,169.23188 283.01279,169.95288 z m 1.98707,39.43736 c 8.56645,0.20309 17.25209,2.9175 24.76291,8.25434 20.02889,14.23139 24.77868,42.03139 10.54729,62.06017 -3.55795,5.00731 -8.0749,9.04091 -12.99299,12.07585 l -11.61723,31.18285 -21.40001,-25.68003 c -5.64261,-1.2478 -11.0428,-3.62652 -16.05011,-7.18429 -20.02878,-14.2314 -24.77852,-42.03139 -10.54712,-62.06034 8.89472,-12.5179 23.01993,-18.98583 37.29726,-18.64855 z"
         style="fill:#950000;fill-opacity:1;stroke:none"
         inkscape:connector-curvature="0" /></g><g
       id="g3607"><path
         sodipodi:nodetypes="ccccccc"
         id="path3601"
         d="m 447.15798,194.74916 41.20752,27.01167 -6.68207,48.97795 -31.05787,16.39704 -56.29353,-7.70977 13.64808,-69.81724 39.17787,-14.85965 z"
         style="fill:#ffffff;fill-opacity:1;stroke:none"
         inkscape:connector-curvature="0" /><path
         style="fill:#8ab5c9;fill-opacity:1;stroke:none"
         d="m 441.06767,186.61441 c -26.73905,1.45858 -49.72069,21.54682 -53.806,49.06729 -1.16656,7.86315 -0.64808,15.5348 1.22274,22.77589 l -16.96725,39.59011 42.80026,-4.73854 c 6.38544,3.89319 13.68978,6.62842 21.55292,7.7956 31.45214,4.6689 60.75433,-17.15653 65.42306,-48.60867 4.6689,-31.45213 -17.15659,-60.75416 -48.60867,-65.42317 -3.93149,-0.5841 -7.79741,-0.66686 -11.61723,-0.45766 z m 1.83416,39.43736 c 1.27903,-0.0628 2.6575,-0.0453 3.97443,0.15614 10.5353,1.56386 17.76671,11.4762 16.20285,22.01144 -1.56386,10.53524 -11.32345,17.76682 -21.85869,16.20302 -2.63374,-0.39034 -5.04544,-1.29464 -7.18424,-2.59861 l -14.36869,1.52884 5.65584,-13.14573 c -0.62619,-2.42538 -0.6965,-5.009 -0.30605,-7.64291 1.36801,-9.21832 8.92782,-16.0203 17.88427,-16.50862 z"
         id="path3648"
         inkscape:connector-curvature="0" /></g></g></g></svg>