<?xml version="1.0" encoding="UTF-8" standalone="no"?>
<!-- Created with Inkscape (http://www.inkscape.org/) -->

<svg
   xmlns:dc="http://purl.org/dc/elements/1.1/"
   xmlns:cc="http://creativecommons.org/ns#"
   xmlns:rdf="http://www.w3.org/1999/02/22-rdf-syntax-ns#"
   xmlns:svg="http://www.w3.org/2000/svg"
   xmlns="http://www.w3.org/2000/svg"
   xmlns:xlink="http://www.w3.org/1999/xlink"
   xmlns:sodipodi="http://sodipodi.sourceforge.net/DTD/sodipodi-0.dtd"
   xmlns:inkscape="http://www.inkscape.org/namespaces/inkscape"
   width="512"
   height="512"
   id="svg2"
   version="1.1"
   inkscape:version="0.48.3.1 r9886"
   sodipodi:docname="muxie.svg"
   inkscape:export-filename="/home/atila/workspace/mad3-muxie/res/drawable-ldpi/ic_launcher.png"
   inkscape:export-xdpi="6.3299999"
   inkscape:export-ydpi="6.3299999">
  <defs
     id="defs4">
    <linearGradient
       inkscape:collect="always"
       id="linearGradient4498">
      <stop
         style="stop-color:#ffffff;stop-opacity:1;"
         offset="0"
         id="stop4500" />
      <stop
         style="stop-color:#ffffff;stop-opacity:0;"
         offset="1"
         id="stop4502" />
    </linearGradient>
    <linearGradient
       inkscape:collect="always"
       id="linearGradient4469">
      <stop
         style="stop-color:#ffffff;stop-opacity:0.6"
         offset="0"
         id="stop4471" />
      <stop
         style="stop-color:#ffffff;stop-opacity:0;"
         offset="1"
         id="stop4473" />
    </linearGradient>
    <filter
       inkscape:collect="always"
       id="filter4357">
      <feGaussianBlur
         inkscape:collect="always"
         stdDeviation="7.4153125"
         id="feGaussianBlur4359" />
    </filter>
    <filter
       inkscape:collect="always"
       id="filter4414">
      <feGaussianBlur
         inkscape:collect="always"
         stdDeviation="2.7807422"
         id="feGaussianBlur4416" />
    </filter>
    <clipPath
       clipPathUnits="userSpaceOnUse"
       id="clipPath4436">
      <path
         style="fill:#ffffff;fill-opacity:1"
         d="m 197.75,110.5625 -0.375,70.375 -81.4375,0 C 111.21723,173.04944 102.61103,167.75 92.75,167.75 c -14.926897,0 -27.03125,12.10436 -27.03125,27.03125 0,14.9269 12.104353,27.03125 27.03125,27.03125 9.28891,0 17.47874,-4.67553 22.34375,-11.8125 l 82.125,0 -0.3125,60.96875 -80.96875,0 c -4.72027,-7.88806 -13.32647,-13.1875 -23.1875,-13.1875 -14.926897,0 -27.03125,12.10436 -27.03125,27.03125 0,14.9269 12.104353,27.03125 27.03125,27.03125 9.28813,0 17.47858,-4.67655 22.34375,-11.8125 l 81.65625,0 -0.375,69.8125 54.84375,-26.96875 0,59.59375 c -7.52056,4.79927 -12.5,13.22962 -12.5,22.8125 0,14.9269 12.10435,27 27.03125,27 14.92689,0 27.03125,-12.0731 27.03125,-27 0,-9.56732 -4.99987,-17.97805 -12.5,-22.78125 l 0,-73.9375 54.15625,-26.625 0,-46.1875 81.28125,0 c 4.80011,7.51621 13.20169,12.5 22.78125,12.5 14.9269,0 27.03125,-12.0731 27.03125,-27 0,-14.92689 -12.10435,-27.03125 -27.03125,-27.03125 -9.57956,0 -17.98114,4.98379 -22.78125,12.5 l -81.28125,0 0,-50.75 L 197.75,110.5625 z"
         id="path4438"
         inkscape:connector-curvature="0" />
    </clipPath>
    <linearGradient
       inkscape:collect="always"
       xlink:href="#linearGradient4469"
       id="linearGradient4475"
       x1="232.34782"
       y1="-151.65218"
       x2="278.26086"
       y2="289.3913"
       gradientUnits="userSpaceOnUse"
       gradientTransform="matrix(1.0085531,0,0,1,-0.10263721,0)" />
    <linearGradient
       inkscape:collect="always"
       xlink:href="#linearGradient4498"
       id="linearGradient4504"
       x1="234.0766"
       y1="686.79517"
       x2="236.35571"
       y2="426.11868"
       gradientUnits="userSpaceOnUse" />
    <filter
       inkscape:collect="always"
       id="filter4510">
      <feGaussianBlur
         inkscape:collect="always"
         stdDeviation="2.86"
         id="feGaussianBlur4512" />
    </filter>
  </defs>
  <sodipodi:namedview
     id="base"
     pagecolor="#ffffff"
     bordercolor="#666666"
     borderopacity="1.0"
     inkscape:pageopacity="0.0"
     inkscape:pageshadow="2"
     inkscape:zoom="1.4550781"
     inkscape:cx="256"
     inkscape:cy="256"
     inkscape:document-units="px"
     inkscape:current-layer="layer7"
     showgrid="false"
     inkscape:showpageshadow="false"
     inkscape:window-width="1280"
     inkscape:window-height="943"
     inkscape:window-x="0"
     inkscape:window-y="26"
     inkscape:window-maximized="1" />
  <metadata
     id="metadata7">
    <rdf:RDF>
      <cc:Work
         rdf:about="">
        <dc:format>image/svg+xml</dc:format>
        <dc:type
           rdf:resource="http://purl.org/dc/dcmitype/StillImage" />
        <dc:title></dc:title>
      </cc:Work>
    </rdf:RDF>
  </metadata>
  <g
     inkscape:label="grid"
     inkscape:groupmode="layer"
     id="layer1"
     transform="translate(0,-540.36218)"
     sodipodi:insensitive="true"
     style="display:none">
    <g
       transform="translate(0,540.36218)"
       id="Grid_1_">
      <g
         id="Layer_1_1_">
        <g
           id="Grid">
          <g
             id="g6">
            <rect
               style="fill:none;stroke:#a9ccdb;stroke-miterlimit:10"
               y="0"
               x="0"
               stroke-miterlimit="10"
               width="512"
               height="512"
               id="rect8" />
            <line
               style="fill:none;stroke:#a9ccdb;stroke-miterlimit:10"
               stroke-miterlimit="10"
               x1="0"
               y1="480"
               x2="512"
               y2="480"
               id="line10" />
            <line
               style="fill:none;stroke:#a9ccdb;stroke-miterlimit:10"
               stroke-miterlimit="10"
               x1="0"
               y1="448"
               x2="512"
               y2="448"
               id="line12" />
            <line
               style="fill:none;stroke:#a9ccdb;stroke-miterlimit:10"
               stroke-miterlimit="10"
               x1="0"
               y1="416"
               x2="512"
               y2="416"
               id="line14" />
            <line
               style="fill:none;stroke:#a9ccdb;stroke-miterlimit:10"
               stroke-miterlimit="10"
               x1="0"
               y1="384"
               x2="512"
               y2="384"
               id="line16" />
            <line
               style="fill:none;stroke:#a9ccdb;stroke-miterlimit:10"
               stroke-miterlimit="10"
               x1="0"
               y1="352"
               x2="512"
               y2="352"
               id="line18" />
            <line
               style="fill:none;stroke:#a9ccdb;stroke-miterlimit:10"
               stroke-miterlimit="10"
               x1="0"
               y1="320"
               x2="512"
               y2="320"
               id="line20" />
            <line
               style="fill:none;stroke:#a9ccdb;stroke-miterlimit:10"
               stroke-miterlimit="10"
               x1="0"
               y1="288"
               x2="512"
               y2="288"
               id="line22" />
            <line
               style="fill:none;stroke:#a9ccdb;stroke-miterlimit:10"
               stroke-miterlimit="10"
               x1="0"
               y1="256"
               x2="512"
               y2="256"
               id="line24" />
            <line
               style="fill:none;stroke:#a9ccdb;stroke-miterlimit:10"
               stroke-miterlimit="10"
               x1="0"
               y1="224"
               x2="512"
               y2="224"
               id="line26" />
            <line
               style="fill:none;stroke:#a9ccdb;stroke-miterlimit:10"
               stroke-miterlimit="10"
               x1="0"
               y1="192"
               x2="512"
               y2="192"
               id="line28" />
            <line
               style="fill:none;stroke:#a9ccdb;stroke-miterlimit:10"
               stroke-miterlimit="10"
               x1="0"
               y1="160"
               x2="512"
               y2="160"
               id="line30" />
            <line
               style="fill:none;stroke:#a9ccdb;stroke-miterlimit:10"
               stroke-miterlimit="10"
               x1="0"
               y1="128"
               x2="512"
               y2="128"
               id="line32" />
            <line
               style="fill:none;stroke:#a9ccdb;stroke-miterlimit:10"
               stroke-miterlimit="10"
               x1="0"
               y1="96"
               x2="512"
               y2="96"
               id="line34" />
            <line
               style="fill:none;stroke:#a9ccdb;stroke-miterlimit:10"
               stroke-miterlimit="10"
               x1="0"
               y1="64"
               x2="512"
               y2="64"
               id="line36" />
            <line
               style="fill:none;stroke:#a9ccdb;stroke-miterlimit:10"
               stroke-miterlimit="10"
               x1="0"
               y1="32"
               x2="512"
               y2="32"
               id="line38" />
            <line
               style="fill:none;stroke:#a9ccdb;stroke-miterlimit:10"
               stroke-miterlimit="10"
               x1="480"
               y1="0"
               x2="480"
               y2="512"
               id="line40" />
            <line
               style="fill:none;stroke:#a9ccdb;stroke-miterlimit:10"
               stroke-miterlimit="10"
               x1="448"
               y1="0"
               x2="448"
               y2="512"
               id="line42" />
            <line
               style="fill:none;stroke:#a9ccdb;stroke-miterlimit:10"
               stroke-miterlimit="10"
               x1="416"
               y1="0"
               x2="416"
               y2="512"
               id="line44" />
            <line
               style="fill:none;stroke:#a9ccdb;stroke-miterlimit:10"
               stroke-miterlimit="10"
               x1="384"
               y1="0"
               x2="384"
               y2="512"
               id="line46" />
            <line
               style="fill:none;stroke:#a9ccdb;stroke-miterlimit:10"
               stroke-miterlimit="10"
               x1="352"
               y1="0"
               x2="352"
               y2="512"
               id="line48" />
            <line
               style="fill:none;stroke:#a9ccdb;stroke-miterlimit:10"
               stroke-miterlimit="10"
               x1="320"
               y1="0"
               x2="320"
               y2="512"
               id="line50" />
            <line
               style="fill:none;stroke:#a9ccdb;stroke-miterlimit:10"
               stroke-miterlimit="10"
               x1="288"
               y1="0"
               x2="288"
               y2="512"
               id="line52" />
            <line
               style="fill:none;stroke:#a9ccdb;stroke-miterlimit:10"
               stroke-miterlimit="10"
               x1="256"
               y1="0"
               x2="256"
               y2="512"
               id="line54" />
            <line
               style="fill:none;stroke:#a9ccdb;stroke-miterlimit:10"
               stroke-miterlimit="10"
               x1="224"
               y1="0"
               x2="224"
               y2="512"
               id="line56" />
            <line
               style="fill:none;stroke:#a9ccdb;stroke-miterlimit:10"
               stroke-miterlimit="10"
               x1="192"
               y1="0"
               x2="192"
               y2="512"
               id="line58" />
            <line
               style="fill:none;stroke:#a9ccdb;stroke-miterlimit:10"
               stroke-miterlimit="10"
               x1="160"
               y1="0"
               x2="160"
               y2="512"
               id="line60" />
            <line
               style="fill:none;stroke:#a9ccdb;stroke-miterlimit:10"
               stroke-miterlimit="10"
               x1="128"
               y1="0"
               x2="128"
               y2="512"
               id="line62" />
            <line
               style="fill:none;stroke:#a9ccdb;stroke-miterlimit:10"
               stroke-miterlimit="10"
               x1="96"
               y1="0"
               x2="96"
               y2="512"
               id="line64" />
            <line
               style="fill:none;stroke:#a9ccdb;stroke-miterlimit:10"
               stroke-miterlimit="10"
               x1="64"
               y1="0"
               x2="64"
               y2="512"
               id="line66" />
            <line
               style="fill:none;stroke:#a9ccdb;stroke-miterlimit:10"
               stroke-miterlimit="10"
               x1="32"
               y1="0"
               x2="32"
               y2="512"
               id="line68" />
          </g>
        </g>
      </g>
    </g>
  </g>
  <g
     inkscape:groupmode="layer"
     id="layer2"
     inkscape:label="bg"
     sodipodi:insensitive="true">
    <rect
       style="fill:#aa4400;fill-opacity:1"
       id="rect3245"
       width="488"
       height="488"
       x="12.782915"
       y="12"
       ry="81.302505" />
  </g>
  <g
     inkscape:groupmode="layer"
     id="layer4"
     inkscape:label="glow"
     sodipodi:insensitive="true">
    <path
       inkscape:connector-curvature="0"
       style="fill:none;stroke:#ffffff;stroke-width:3;stroke-miterlimit:4;stroke-opacity:1;stroke-dasharray:none;filter:url(#filter4357)"
       d="m 197.75,110.5625 -0.375,70.375 -81.4375,0 C 111.21723,173.04944 102.61103,167.75 92.75,167.75 c -14.926897,0 -27.03125,12.10436 -27.03125,27.03125 0,14.9269 12.104353,27.03125 27.03125,27.03125 9.28891,0 17.47874,-4.67553 22.34375,-11.8125 l 82.125,0 -0.3125,60.96875 -80.96875,0 c -4.72027,-7.88806 -13.32647,-13.1875 -23.1875,-13.1875 -14.926897,0 -27.03125,12.10436 -27.03125,27.03125 0,14.9269 12.104353,27.03125 27.03125,27.03125 9.28813,0 17.47858,-4.67655 22.34375,-11.8125 l 81.65625,0 -0.375,69.8125 54.84375,-26.96875 0,59.59375 c -7.52056,4.79927 -12.5,13.22962 -12.5,22.8125 0,14.9269 12.10435,27 27.03125,27 14.92689,0 27.03125,-12.0731 27.03125,-27 0,-9.56732 -4.99987,-17.97805 -12.5,-22.78125 l 0,-73.9375 54.15625,-26.625 0,-46.1875 81.28125,0 c 4.80011,7.51621 13.20169,12.5 22.78125,12.5 14.9269,0 27.03125,-12.0731 27.03125,-27 0,-14.92689 -12.10435,-27.03125 -27.03125,-27.03125 -9.57956,0 -17.98114,4.98379 -22.78125,12.5 l -81.28125,0 0,-50.75 L 197.75,110.5625 z"
       id="rect3269-4"
       transform="matrix(1.1174214,0,0,1.1174214,-40.815059,-43.162478)" />
  </g>
  <g
     inkscape:groupmode="layer"
     id="layer3"
     inkscape:label="logo">
    <path
       style="fill:#ffffff;fill-opacity:1;stroke-width:0.2;stroke-miterlimit:4;stroke-dasharray:none"
       d="m 180.15503,80.38243 -0.41903,78.63854 -91.000011,0 c -5.274531,-8.81429 -14.891283,-14.736 -25.91021,-14.736 -16.679634,0 -30.205298,13.52567 -30.205298,30.2053 0,16.67964 13.525664,30.2053 30.205298,30.2053 10.379627,0 19.531119,-5.22454 24.967385,-13.19954 l 91.768236,0 -0.34919,68.12778 -90.476221,0 c -5.274531,-8.81428 -14.891283,-14.73599 -25.91021,-14.73599 -16.679634,0 -30.205298,13.52567 -30.205298,30.2053 0,16.67964 13.525664,30.2053 30.205298,30.2053 10.378756,0 19.53094,-5.22568 24.967385,-13.19955 l 91.244446,0 -0.41903,78.00999 61.28358,-30.13546 0,66.59133 c -8.40364,5.36281 -13.96777,14.78306 -13.96777,25.49118 0,16.67964 13.52566,30.17038 30.2053,30.17038 16.67962,0 30.2053,-13.49074 30.2053,-30.17038 0,-10.69073 -5.58697,-20.08906 -13.96777,-25.45626 l 0,-82.61934 60.51535,-29.75135 0,-51.6109 90.82541,0 c 5.36375,8.39877 14.75185,13.96776 25.45626,13.96776 16.67964,0 30.2053,-13.49074 30.2053,-30.17037 0,-16.67963 -13.52566,-30.2053 -30.2053,-30.2053 -10.70441,0 -20.09251,5.56899 -25.45626,13.96777 l -90.82541,0 0,-56.70914 -152.73754,-73.08635 z"
       id="rect3269"
       inkscape:connector-curvature="0" />
  </g>
  <g
     inkscape:groupmode="layer"
     id="layer6"
     inkscape:label="sunken"
     sodipodi:insensitive="true">
    <path
       style="fill:none;stroke:#000000;stroke-width:1.60000002;stroke-miterlimit:4;stroke-opacity:1;stroke-dasharray:none;filter:url(#filter4414)"
       d="m 197.75,110.5625 -0.375,70.375 -81.4375,0 C 111.21723,173.04944 102.61103,167.75 92.75,167.75 c -14.926897,0 -27.03125,12.10436 -27.03125,27.03125 0,14.9269 12.104353,27.03125 27.03125,27.03125 9.28891,0 17.47874,-4.67553 22.34375,-11.8125 l 82.125,0 -0.3125,60.96875 -80.96875,0 c -4.72027,-7.88806 -13.32647,-13.1875 -23.1875,-13.1875 -14.926897,0 -27.03125,12.10436 -27.03125,27.03125 0,14.9269 12.104353,27.03125 27.03125,27.03125 9.28813,0 17.47858,-4.67655 22.34375,-11.8125 l 81.65625,0 -0.375,69.8125 54.84375,-26.96875 0,59.59375 c -7.52056,4.79927 -12.5,13.22962 -12.5,22.8125 0,14.9269 12.10435,27 27.03125,27 14.92689,0 27.03125,-12.0731 27.03125,-27 0,-9.56732 -4.99987,-17.97805 -12.5,-22.78125 l 0,-73.9375 54.15625,-26.625 0,-46.1875 81.28125,0 c 4.80011,7.51621 13.20169,12.5 22.78125,12.5 14.9269,0 27.03125,-12.0731 27.03125,-27 0,-14.92689 -12.10435,-27.03125 -27.03125,-27.03125 -9.57956,0 -17.98114,4.98379 -22.78125,12.5 l -81.28125,0 0,-50.75 L 197.75,110.5625 z"
       id="rect3269-1"
       inkscape:connector-curvature="0"
       clip-path="url(#clipPath4436)"
       transform="matrix(1.1174214,0,0,1.1174214,-40.815059,-43.162478)" />
  </g>
  <g
     inkscape:groupmode="layer"
     id="layer7"
     inkscape:label="detail"
     sodipodi:insensitive="true">
    <path
       style="fill:url(#linearGradient4504);fill-opacity:1;filter:url(#filter4510)"
       d="m 12.782916,416 0,2.6875 c 0,45.04159 36.27091,81.3125 81.312498,81.3125 l 325.374996,0 c 45.04159,0 81.3125,-36.27091 81.3125,-81.3125 l 0,-2.6875 -487.999994,0 z"
       id="path4467"
       inkscape:connector-curvature="0" />
    <path
       style="fill:url(#linearGradient4475);fill-opacity:1"
       d="M 94.007974,12 C 48.581141,12 12,48.270912 12,93.3125 l 0,119.40625 c 1.208626,0.28271 2.339001,0.6003 3.561453,0.875 6.430624,1.44501 13.026352,2.78075 19.824372,4 6.79802,1.21925 13.787616,2.32565 20.927477,3.3125 7.139861,0.98685 14.448364,1.84593 21.904513,2.59375 7.456148,0.74782 15.071631,1.37285 22.818515,1.875 7.74688,0.50215 15.6259,0.87515 23.63796,1.125 8.01206,0.24985 16.14269,0.38409 24.39438,0.375 8.25169,-0.009 16.622,-0.16284 25.08776,-0.4375 8.46575,-0.27466 17.03231,-0.67188 25.68658,-1.21875 8.65428,-0.54687 17.40515,-1.23679 26.22239,-2.0625 8.81723,-0.82571 17.70898,-1.79507 26.66362,-2.90625 9.11693,-1.13132 18.13686,-2.39799 27.04183,-3.78125 8.90497,-1.38326 17.67981,-2.87819 26.34845,-4.5 8.66863,-1.62181 17.21564,-3.37177 25.62355,-5.21875 8.40791,-1.84698 16.68129,-3.78499 24.8041,-5.84375 8.12282,-2.05876 16.10827,-4.21159 23.92162,-6.46875 7.81335,-2.25716 15.46508,-4.62033 22.94458,-7.0625 7.47951,-2.44217 14.78323,-4.97995 21.90452,-7.59375 7.12128,-2.6138 14.06272,-5.29046 20.80141,-8.0625 6.73868,-2.77204 13.27203,-5.6456 19.60375,-8.5625 6.33171,-2.9169 12.44269,-5.88913 18.34306,-8.9375 5.90036,-3.04837 11.57469,-6.17729 17.01933,-9.34375 1.0755,-0.62548 2.03155,-1.27647 3.08869,-1.90625 l 0,-49.65625 C 504.17391,48.270912 467.59277,12 422.16594,12 L 94.007974,12 z"
       id="rect3245-1"
       inkscape:connector-curvature="0" />
  </g>
</svg>
