<?xml version="1.0" encoding="UTF-8" standalone="no"?>
<!-- Created with Inkscape (http://www.inkscape.org/) -->

<svg
   xmlns:dc="http://purl.org/dc/elements/1.1/"
   xmlns:cc="http://creativecommons.org/ns#"
   xmlns:rdf="http://www.w3.org/1999/02/22-rdf-syntax-ns#"
   xmlns:svg="http://www.w3.org/2000/svg"
   xmlns="http://www.w3.org/2000/svg"
   xmlns:sodipodi="http://sodipodi.sourceforge.net/DTD/sodipodi-0.dtd"
   xmlns:inkscape="http://www.inkscape.org/namespaces/inkscape"
   width="512"
   height="512"
   id="svg3055"
   version="1.1"
   inkscape:version="0.48.3.1 r9886"
   sodipodi:docname="muxie_header.svg"
   inkscape:export-filename="/home/atila/workspace/mad3-mobile/res/drawable-ldpi/ic_muxie_header.png"
   inkscape:export-xdpi="6.3299999"
   inkscape:export-ydpi="6.3299999">
  <defs
     id="defs3057">
    <clipPath
       clipPathUnits="userSpaceOnUse"
       id="clipPath3962">
      <path
         style="fill:#aa4400;fill-opacity:1;stroke-width:0.2;stroke-miterlimit:4;stroke-dasharray:none"
         d="m 180.15503,80.38243 -0.41903,78.63854 -91.000011,0 c -5.274531,-8.81429 -14.891283,-14.736 -25.91021,-14.736 -16.679634,0 -30.205298,13.52567 -30.205298,30.2053 0,16.67964 13.525664,30.2053 30.205298,30.2053 10.379627,0 19.531119,-5.22454 24.967385,-13.19954 l 91.768236,0 -0.34919,68.12778 -90.476221,0 c -5.274531,-8.81428 -14.891283,-14.73599 -25.91021,-14.73599 -16.679634,0 -30.205298,13.52567 -30.205298,30.2053 0,16.67964 13.525664,30.2053 30.205298,30.2053 10.378756,0 19.53094,-5.22568 24.967385,-13.19955 l 91.244446,0 -0.41903,78.00999 61.28358,-30.13546 0,66.59133 c -8.40364,5.36281 -13.96777,14.78306 -13.96777,25.49118 0,16.67964 13.52566,30.17041 30.2053,30.17041 16.67962,0 30.2053,-13.49077 30.2053,-30.17041 0,-10.69073 -5.58697,-20.08906 -13.96777,-25.45626 l 0,-82.61934 60.51535,-29.75135 0,-51.6109 90.82541,0 c 5.36375,8.39877 14.75185,13.96776 25.45626,13.96776 16.67964,0 30.2053,-13.49074 30.2053,-30.17037 0,-16.67963 -13.52566,-30.2053 -30.2053,-30.2053 -10.70441,0 -20.09251,5.56899 -25.45626,13.96777 l -90.82541,0 0,-56.70914 -152.73754,-73.08635 z"
         id="path3964"
         inkscape:connector-curvature="0" />
    </clipPath>
    <clipPath
       clipPathUnits="userSpaceOnUse"
       id="clipPath3833">
      <path
         style="fill:#aa4400;fill-opacity:1;stroke-width:0.2;stroke-miterlimit:4;stroke-dasharray:none"
         d="m 181.74879,70.4808 -0.4374,82.08624 -94.989667,0 c -5.505779,-9.20073 -15.544152,-15.38206 -27.046174,-15.38206 -17.410909,0 -31.52957,14.11867 -31.52957,31.52957 0,17.41092 14.118661,31.52957 31.52957,31.52957 10.834694,0 20.387409,-5.45359 26.062014,-13.77824 l 95.791567,0 -0.3645,71.11467 -94.442907,0 C 80.815944,248.37983 70.777571,242.1985 59.275549,242.1985 c -17.410909,0 -31.52957,14.11866 -31.52957,31.52957 0,17.41091 14.118661,31.52957 31.52957,31.52957 10.833785,0 20.387222,-5.45479 26.062014,-13.77825 l 95.244817,0 -0.4374,81.43013 63.9704,-31.45667 0,69.51085 c -8.77208,5.59793 -14.58015,15.43119 -14.58015,26.60878 0,17.41091 14.11865,31.49314 31.52957,31.49314 17.41089,0 31.52957,-14.08223 31.52957,-31.49314 0,-11.15944 -5.83192,-20.96981 -14.58015,-26.57232 l 0,-86.24157 63.16848,-31.05572 0,-53.87365 94.80742,0 c 5.59891,8.767 15.3986,14.58014 26.57232,14.58014 17.41091,0 31.52957,-14.0822 31.52957,-31.49311 0,-17.4109 -14.11866,-31.52957 -31.52957,-31.52957 -11.17372,0 -20.97341,5.81315 -26.57232,14.58015 l -94.80742,0 0,-59.1954 L 181.74879,70.4808 z"
         id="path3835"
         inkscape:connector-curvature="0" />
    </clipPath>
    <filter
       inkscape:collect="always"
       id="filter3939">
      <feGaussianBlur
         inkscape:collect="always"
         stdDeviation="6.4869814"
         id="feGaussianBlur3941" />
    </filter>
    <clipPath
       clipPathUnits="userSpaceOnUse"
       id="clipPath3961">
      <path
         style="fill:#aa4400;fill-opacity:1;stroke-width:0.2;stroke-miterlimit:4;stroke-dasharray:none"
         d="m 181.74879,70.4808 -0.4374,82.08624 -94.989667,0 c -5.505779,-9.20073 -15.544152,-15.38206 -27.046174,-15.38206 -17.410909,0 -31.52957,14.11867 -31.52957,31.52957 0,17.41092 14.118661,31.52957 31.52957,31.52957 10.834694,0 20.387409,-5.45359 26.062014,-13.77824 l 95.791567,0 -0.3645,71.11467 -94.442907,0 C 80.815944,248.37983 70.777571,242.1985 59.275549,242.1985 c -17.410909,0 -31.52957,14.11866 -31.52957,31.52957 0,17.41091 14.118661,31.52957 31.52957,31.52957 10.833785,0 20.387222,-5.45479 26.062014,-13.77825 l 95.244817,0 -0.4374,81.43013 63.9704,-31.45667 0,69.51085 c -8.77208,5.59793 -14.58015,15.43119 -14.58015,26.60878 0,17.41091 14.11865,31.49314 31.52957,31.49314 17.41089,0 31.52957,-14.08223 31.52957,-31.49314 0,-11.15944 -5.83192,-20.96981 -14.58015,-26.57232 l 0,-86.24157 63.16848,-31.05572 0,-53.87365 94.80742,0 c 5.59891,8.767 15.3986,14.58014 26.57232,14.58014 17.41091,0 31.52957,-14.0822 31.52957,-31.49311 0,-17.4109 -14.11866,-31.52957 -31.52957,-31.52957 -11.17372,0 -20.97341,5.81315 -26.57232,14.58015 l -94.80742,0 0,-59.1954 L 181.74879,70.4808 z"
         id="path3963"
         inkscape:connector-curvature="0" />
    </clipPath>
    <filter
       inkscape:collect="always"
       id="filter3843">
      <feGaussianBlur
         inkscape:collect="always"
         stdDeviation="8.2860292"
         id="feGaussianBlur3845" />
    </filter>
  </defs>
  <sodipodi:namedview
     id="base"
     pagecolor="#ffffff"
     bordercolor="#666666"
     borderopacity="1.0"
     inkscape:pageopacity="0.0"
     inkscape:pageshadow="2"
     inkscape:zoom="1.4550781"
     inkscape:cx="256"
     inkscape:cy="256"
     inkscape:document-units="px"
     inkscape:current-layer="layer2"
     showgrid="false"
     inkscape:showpageshadow="false"
     inkscape:window-width="1280"
     inkscape:window-height="943"
     inkscape:window-x="0"
     inkscape:window-y="26"
     inkscape:window-maximized="1" />
  <metadata
     id="metadata3060">
    <rdf:RDF>
      <cc:Work
         rdf:about="">
        <dc:format>image/svg+xml</dc:format>
        <dc:type
           rdf:resource="http://purl.org/dc/dcmitype/StillImage" />
        <dc:title></dc:title>
      </cc:Work>
    </rdf:RDF>
  </metadata>
  <g
     inkscape:groupmode="layer"
     id="layer2"
     inkscape:label="glow">
    <path
       style="fill:none;stroke:#ffffff;stroke-width:2.00030195999999982;stroke-miterlimit:4;stroke-opacity:1;stroke-dasharray:none;opacity:0.59999999999999998;filter:url(#filter3843)"
       d="m 180.15503,80.38243 -0.41903,78.63854 -91.000011,0 c -5.274531,-8.81429 -14.891283,-14.736 -25.91021,-14.736 -16.679634,0 -30.205298,13.52567 -30.205298,30.2053 0,16.67964 13.525664,30.2053 30.205298,30.2053 10.379627,0 19.531119,-5.22454 24.967385,-13.19954 l 91.768236,0 -0.34919,68.12778 -90.476221,0 c -5.274531,-8.81428 -14.891283,-14.73599 -25.91021,-14.73599 -16.679634,0 -30.205298,13.52567 -30.205298,30.2053 0,16.67964 13.525664,30.2053 30.205298,30.2053 10.378756,0 19.53094,-5.22568 24.967385,-13.19955 l 91.244446,0 -0.41903,78.00999 61.28358,-30.13546 0,66.59133 c -8.40364,5.36281 -13.96777,14.78306 -13.96777,25.49118 0,16.67964 13.52566,30.17038 30.2053,30.17038 16.67962,0 30.2053,-13.49074 30.2053,-30.17038 0,-10.69073 -5.58697,-20.08906 -13.96777,-25.45626 l 0,-82.61934 60.51535,-29.75135 0,-51.6109 90.82541,0 c 5.36375,8.39877 14.75185,13.96776 25.45626,13.96776 16.67964,0 30.2053,-13.49074 30.2053,-30.17037 0,-16.67963 -13.52566,-30.2053 -30.2053,-30.2053 -10.70441,0 -20.09251,5.56899 -25.45626,13.96777 l -90.82541,0 0,-56.70914 -152.73754,-73.08635 z"
       id="rect3269-4"
       inkscape:connector-curvature="0"
       transform="matrix(1.0438424,0,0,1.0438424,-6.3046613,-13.425784)" />
  </g>
  <g
     inkscape:label="logo"
     inkscape:groupmode="layer"
     id="layer1"
     transform="translate(0,-540.36218)"
     sodipodi:insensitive="true">
    <path
       style="fill:#aa4400;fill-opacity:1;stroke-width:0.2;stroke-miterlimit:4;stroke-dasharray:none"
       d="m 181.74879,610.84298 -0.4374,82.08624 -94.989667,0 c -5.505779,-9.20073 -15.544152,-15.38206 -27.046174,-15.38206 -17.410909,0 -31.52957,14.11867 -31.52957,31.52957 0,17.41092 14.118661,31.52957 31.52957,31.52957 10.834694,0 20.387409,-5.45359 26.062014,-13.77824 l 95.791567,0 -0.3645,71.11467 -94.442907,0 c -5.505779,-9.20072 -15.544152,-15.38205 -27.046174,-15.38205 -17.410909,0 -31.52957,14.11866 -31.52957,31.52957 0,17.41091 14.118661,31.52957 31.52957,31.52957 10.833785,0 20.387222,-5.45479 26.062014,-13.77825 l 95.244817,0 -0.4374,81.43013 63.9704,-31.45667 0,69.51085 c -8.77208,5.59793 -14.58015,15.43119 -14.58015,26.60878 0,17.41091 14.11865,31.49314 31.52957,31.49314 17.41089,0 31.52957,-14.08223 31.52957,-31.49314 0,-11.15944 -5.83192,-20.96981 -14.58015,-26.57232 l 0,-86.24157 63.16848,-31.05572 0,-53.87365 94.80742,0 c 5.59891,8.767 15.3986,14.58014 26.57232,14.58014 17.41091,0 31.52957,-14.0822 31.52957,-31.49311 0,-17.4109 -14.11866,-31.52957 -31.52957,-31.52957 -11.17372,0 -20.97341,5.81315 -26.57232,14.58015 l -94.80742,0 0,-59.1954 -159.43391,-76.29063 z"
       id="rect3269"
       inkscape:connector-curvature="0" />
  </g>
  <g
     inkscape:groupmode="layer"
     id="layer3"
     inkscape:label="sunken"
     sodipodi:insensitive="true">
    <path
       style="fill:none;stroke:#000000;stroke-width:5;stroke-miterlimit:4;stroke-opacity:1;stroke-dasharray:none;filter:url(#filter3939)"
       d="m 181.74879,70.4808 -0.4374,82.08624 -94.989667,0 c -5.505779,-9.20073 -15.544152,-15.38206 -27.046174,-15.38206 -17.410909,0 -31.52957,14.11867 -31.52957,31.52957 0,17.41092 14.118661,31.52957 31.52957,31.52957 10.834694,0 20.387409,-5.45359 26.062014,-13.77824 l 95.791567,0 -0.3645,71.11467 -94.442907,0 C 80.815944,248.37983 70.777571,242.1985 59.275549,242.1985 c -17.410909,0 -31.52957,14.11866 -31.52957,31.52957 0,17.41091 14.118661,31.52957 31.52957,31.52957 10.833785,0 20.387222,-5.45479 26.062014,-13.77825 l 95.244817,0 -0.4374,81.43013 63.9704,-31.45667 0,69.51085 c -8.77208,5.59793 -14.58015,15.43119 -14.58015,26.60878 0,17.41091 14.11865,31.49314 31.52957,31.49314 17.41089,0 31.52957,-14.08223 31.52957,-31.49314 0,-11.15944 -5.83192,-20.96981 -14.58015,-26.57232 l 0,-86.24157 63.16848,-31.05572 0,-53.87365 94.80742,0 c 5.59891,8.767 15.3986,14.58014 26.57232,14.58014 17.41091,0 31.52957,-14.0822 31.52957,-31.49311 0,-17.4109 -14.11866,-31.52957 -31.52957,-31.52957 -11.17372,0 -20.97341,5.81315 -26.57232,14.58015 l -94.80742,0 0,-59.1954 L 181.74879,70.4808 z"
       id="rect3269-8"
       inkscape:connector-curvature="0"
       clip-path="url(#clipPath3961)" />
  </g>
</svg>
