<?xml version="1.0" encoding="UTF-8" standalone="no"?>
<!-- Generator: Adobe Illustrator 15.0.0, SVG Export Plug-In . SVG Version: 6.00 Build 0)  -->

<svg
   xmlns:dc="http://purl.org/dc/elements/1.1/"
   xmlns:cc="http://creativecommons.org/ns#"
   xmlns:rdf="http://www.w3.org/1999/02/22-rdf-syntax-ns#"
   xmlns:svg="http://www.w3.org/2000/svg"
   xmlns="http://www.w3.org/2000/svg"
   xmlns:sodipodi="http://sodipodi.sourceforge.net/DTD/sodipodi-0.dtd"
   xmlns:inkscape="http://www.inkscape.org/namespaces/inkscape"
   version="1.1"
   id="Layer_1"
   x="0px"
   y="0px"
   width="512px"
   height="512px"
   viewBox="0 0 512 512"
   enable-background="new 0 0 512 512"
   xml:space="preserve"
   inkscape:version="0.48.2 r9819"
   sodipodi:docname="twitter-bird2.svg"
   inkscape:export-filename="/home/atila/workspace/mad3-mobile/res/drawable-ldpi/ic_launcher_twitter_bird.png"
   inkscape:export-xdpi="6.3299999"
   inkscape:export-ydpi="6.3299999"><metadata
   id="metadata76"><rdf:RDF><cc:Work
       rdf:about=""><dc:format>image/svg+xml</dc:format><dc:type
         rdf:resource="http://purl.org/dc/dcmitype/StillImage" /><dc:title></dc:title></cc:Work></rdf:RDF></metadata><defs
   id="defs74" /><sodipodi:namedview
   pagecolor="#ffffff"
   bordercolor="#666666"
   borderopacity="1"
   objecttolerance="10"
   gridtolerance="10"
   guidetolerance="10"
   inkscape:pageopacity="0"
   inkscape:pageshadow="2"
   inkscape:window-width="1280"
   inkscape:window-height="946"
   id="namedview72"
   showgrid="false"
   inkscape:zoom="0.4609375"
   inkscape:cx="256"
   inkscape:cy="256"
   inkscape:window-x="0"
   inkscape:window-y="25"
   inkscape:window-maximized="1"
   inkscape:current-layer="Layer_1" />
<g
   id="Grid_1_">
	<g
   id="Layer_1_1_"
   transform="translate(-551.05085,10.847458)">
		<g
   id="Grid">
			<g
   id="g6">
				<rect
   x="0"
   stroke-miterlimit="10"
   width="512"
   height="512"
   id="rect8"
   y="0"
   style="fill:none;stroke:#a9ccdb;stroke-miterlimit:10" />
				<line
   stroke-miterlimit="10"
   x1="0"
   y1="480"
   x2="512"
   y2="480"
   id="line10"
   style="fill:none;stroke:#a9ccdb;stroke-miterlimit:10" />
				<line
   stroke-miterlimit="10"
   x1="0"
   y1="448"
   x2="512"
   y2="448"
   id="line12"
   style="fill:none;stroke:#a9ccdb;stroke-miterlimit:10" />
				<line
   stroke-miterlimit="10"
   x1="0"
   y1="416"
   x2="512"
   y2="416"
   id="line14"
   style="fill:none;stroke:#a9ccdb;stroke-miterlimit:10" />
				<line
   stroke-miterlimit="10"
   x1="0"
   y1="384"
   x2="512"
   y2="384"
   id="line16"
   style="fill:none;stroke:#a9ccdb;stroke-miterlimit:10" />
				<line
   stroke-miterlimit="10"
   x1="0"
   y1="352"
   x2="512"
   y2="352"
   id="line18"
   style="fill:none;stroke:#a9ccdb;stroke-miterlimit:10" />
				<line
   stroke-miterlimit="10"
   x1="0"
   y1="320"
   x2="512"
   y2="320"
   id="line20"
   style="fill:none;stroke:#a9ccdb;stroke-miterlimit:10" />
				<line
   stroke-miterlimit="10"
   x1="0"
   y1="288"
   x2="512"
   y2="288"
   id="line22"
   style="fill:none;stroke:#a9ccdb;stroke-miterlimit:10" />
				<line
   stroke-miterlimit="10"
   x1="0"
   y1="256"
   x2="512"
   y2="256"
   id="line24"
   style="fill:none;stroke:#a9ccdb;stroke-miterlimit:10" />
				<line
   stroke-miterlimit="10"
   x1="0"
   y1="224"
   x2="512"
   y2="224"
   id="line26"
   style="fill:none;stroke:#a9ccdb;stroke-miterlimit:10" />
				<line
   stroke-miterlimit="10"
   x1="0"
   y1="192"
   x2="512"
   y2="192"
   id="line28"
   style="fill:none;stroke:#a9ccdb;stroke-miterlimit:10" />
				<line
   stroke-miterlimit="10"
   x1="0"
   y1="160"
   x2="512"
   y2="160"
   id="line30"
   style="fill:none;stroke:#a9ccdb;stroke-miterlimit:10" />
				<line
   stroke-miterlimit="10"
   x1="0"
   y1="128"
   x2="512"
   y2="128"
   id="line32"
   style="fill:none;stroke:#a9ccdb;stroke-miterlimit:10" />
				<line
   stroke-miterlimit="10"
   x1="0"
   y1="96"
   x2="512"
   y2="96"
   id="line34"
   style="fill:none;stroke:#a9ccdb;stroke-miterlimit:10" />
				<line
   stroke-miterlimit="10"
   x1="0"
   y1="64"
   x2="512"
   y2="64"
   id="line36"
   style="fill:none;stroke:#a9ccdb;stroke-miterlimit:10" />
				<line
   stroke-miterlimit="10"
   x1="0"
   y1="32"
   x2="512"
   y2="32"
   id="line38"
   style="fill:none;stroke:#a9ccdb;stroke-miterlimit:10" />
				<line
   stroke-miterlimit="10"
   x1="480"
   y1="0"
   x2="480"
   y2="512"
   id="line40"
   style="fill:none;stroke:#a9ccdb;stroke-miterlimit:10" />
				<line
   stroke-miterlimit="10"
   x1="448"
   y1="0"
   x2="448"
   y2="512"
   id="line42"
   style="fill:none;stroke:#a9ccdb;stroke-miterlimit:10" />
				<line
   stroke-miterlimit="10"
   x1="416"
   y1="0"
   x2="416"
   y2="512"
   id="line44"
   style="fill:none;stroke:#a9ccdb;stroke-miterlimit:10" />
				<line
   stroke-miterlimit="10"
   x1="384"
   y1="0"
   x2="384"
   y2="512"
   id="line46"
   style="fill:none;stroke:#a9ccdb;stroke-miterlimit:10" />
				<line
   stroke-miterlimit="10"
   x1="352"
   y1="0"
   x2="352"
   y2="512"
   id="line48"
   style="fill:none;stroke:#a9ccdb;stroke-miterlimit:10" />
				<line
   stroke-miterlimit="10"
   x1="320"
   y1="0"
   x2="320"
   y2="512"
   id="line50"
   style="fill:none;stroke:#a9ccdb;stroke-miterlimit:10" />
				<line
   stroke-miterlimit="10"
   x1="288"
   y1="0"
   x2="288"
   y2="512"
   id="line52"
   style="fill:none;stroke:#a9ccdb;stroke-miterlimit:10" />
				<line
   stroke-miterlimit="10"
   x1="256"
   y1="0"
   x2="256"
   y2="512"
   id="line54"
   style="fill:none;stroke:#a9ccdb;stroke-miterlimit:10" />
				<line
   stroke-miterlimit="10"
   x1="224"
   y1="0"
   x2="224"
   y2="512"
   id="line56"
   style="fill:none;stroke:#a9ccdb;stroke-miterlimit:10" />
				<line
   stroke-miterlimit="10"
   x1="192"
   y1="0"
   x2="192"
   y2="512"
   id="line58"
   style="fill:none;stroke:#a9ccdb;stroke-miterlimit:10" />
				<line
   stroke-miterlimit="10"
   x1="160"
   y1="0"
   x2="160"
   y2="512"
   id="line60"
   style="fill:none;stroke:#a9ccdb;stroke-miterlimit:10" />
				<line
   stroke-miterlimit="10"
   x1="128"
   y1="0"
   x2="128"
   y2="512"
   id="line62"
   style="fill:none;stroke:#a9ccdb;stroke-miterlimit:10" />
				<line
   stroke-miterlimit="10"
   x1="96"
   y1="0"
   x2="96"
   y2="512"
   id="line64"
   style="fill:none;stroke:#a9ccdb;stroke-miterlimit:10" />
				<line
   stroke-miterlimit="10"
   x1="64"
   y1="0"
   x2="64"
   y2="512"
   id="line66"
   style="fill:none;stroke:#a9ccdb;stroke-miterlimit:10" />
				<line
   stroke-miterlimit="10"
   x1="32"
   y1="0"
   x2="32"
   y2="512"
   id="line68"
   style="fill:none;stroke:#a9ccdb;stroke-miterlimit:10" />
			</g>
		</g>
	</g>
</g>
<rect
   style="fill:#ffffff;fill-opacity:1;stroke:none"
   id="rect3053"
   width="388.33899"
   height="379.66101"
   x="65.08477"
   y="80.271187" /><path
   d="M 418.6708,12 H 93.342547 C 48.605719,12 12,48.604766 12,93.34445 V 418.6565 C 12,463.42383 48.605719,500 93.342547,500 H 418.6708 C 463.40858,500 500,463.42383 500,418.65555 V 93.34445 C 500,48.604766 463.40858,12 418.6708,12 z M 395.32877,262.72334 C 365.48928,383.795 165.15098,435.16844 73,309.4665 c 35.29898,33.69773 96.77078,36.68673 135.75169,-3.63427 -22.86357,3.35214 -39.50036,-19.09395 -11.40891,-31.22056 -25.24066,2.76311 -39.3002,-10.67404 -45.05326,-22.0982 5.91032,-6.18674 12.45067,-9.08138 25.08529,-9.9125 -27.65206,-6.53272 -37.86003,-20.05947 -40.97865,-36.4942 7.65931,-1.82143 17.25251,-3.40933 22.49375,-2.70116 -24.21033,-12.66131 -32.61785,-31.73144 -31.28824,-46.06263 43.26997,16.0878 70.84578,29.00264 93.89902,41.36086 8.20831,4.39963 17.39358,12.29627 27.72736,22.33363 13.15789,-34.83958 29.42773,-70.72664 57.27995,-88.54245 -0.4575,4.04411 -2.62491,7.7956 -5.48905,10.87229 7.91857,-7.18465 18.16561,-12.12756 28.60328,-13.55915 -1.20093,7.84707 -12.47259,12.25242 -19.28743,14.80775 5.15926,-1.60793 32.57876,-13.83747 35.57062,-6.85583 3.52752,7.91379 -18.91858,11.57475 -22.72059,12.94534 -2.86986,0.96361 -5.71303,2.01872 -8.51236,3.15485 34.72997,-3.46652 67.89872,25.21492 77.57008,60.80937 0.69959,2.57058 1.38584,5.41184 2.02062,8.40084 12.69658,4.73418 35.72503,-0.23446 43.13653,-4.79898 -5.36418,12.68991 -19.29125,22.04006 -39.86159,23.74234 9.89916,4.11846 28.57945,6.40405 41.46189,4.20614 -8.15208,8.7535 -21.28423,16.68446 -43.67123,16.50336 z"
   id="path70"
   inkscape:connector-curvature="0"
   style="fill:#0099cc;fill-opacity:1" />
</svg>