<?xml version="1.0" encoding="UTF-8" standalone="no"?>
<!-- Generator: Adobe Illustrator 15.0.0, SVG Export Plug-In . SVG Version: 6.00 Build 0)  -->

<svg
   xmlns:dc="http://purl.org/dc/elements/1.1/"
   xmlns:cc="http://creativecommons.org/ns#"
   xmlns:rdf="http://www.w3.org/1999/02/22-rdf-syntax-ns#"
   xmlns:svg="http://www.w3.org/2000/svg"
   xmlns="http://www.w3.org/2000/svg"
   xmlns:sodipodi="http://sodipodi.sourceforge.net/DTD/sodipodi-0.dtd"
   xmlns:inkscape="http://www.inkscape.org/namespaces/inkscape"
   version="1.1"
   id="Layer_1"
   x="0px"
   y="0px"
   width="512px"
   height="512px"
   viewBox="0 0 512 512"
   enable-background="new 0 0 512 512"
   xml:space="preserve"
   inkscape:version="0.48.3.1 r9886"
   sodipodi:docname="wordpress2.svg"
   inkscape:export-filename="/home/atila/workspace/mad3-muxie/res/drawable-ldpi/ic_launcher_wordpress.png"
   inkscape:export-xdpi="6.3299999"
   inkscape:export-ydpi="6.3299999"><metadata
   id="metadata86"><rdf:RDF><cc:Work
       rdf:about=""><dc:format>image/svg+xml</dc:format><dc:type
         rdf:resource="http://purl.org/dc/dcmitype/StillImage" /><dc:title></dc:title></cc:Work></rdf:RDF></metadata><defs
   id="defs84" /><sodipodi:namedview
   pagecolor="#ffffff"
   bordercolor="#666666"
   borderopacity="1"
   objecttolerance="10"
   gridtolerance="10"
   guidetolerance="10"
   inkscape:pageopacity="0"
   inkscape:pageshadow="2"
   inkscape:window-width="1280"
   inkscape:window-height="943"
   id="namedview82"
   showgrid="false"
   inkscape:zoom="0.4609375"
   inkscape:cx="256"
   inkscape:cy="256"
   inkscape:window-x="0"
   inkscape:window-y="26"
   inkscape:window-maximized="1"
   inkscape:current-layer="Layer_1" />
<g
   id="Grid_1_">
	<g
   id="Layer_1_1_"
   transform="translate(-542.37288,-2.1694915)">
		<g
   id="Grid">
			<g
   id="g6">
				<rect
   x="0"
   stroke-miterlimit="10"
   width="512"
   height="512"
   id="rect8"
   y="0"
   style="fill:none;stroke:#a9ccdb;stroke-miterlimit:10" />
				<line
   stroke-miterlimit="10"
   x1="0"
   y1="480"
   x2="512"
   y2="480"
   id="line10"
   style="fill:none;stroke:#a9ccdb;stroke-miterlimit:10" />
				<line
   stroke-miterlimit="10"
   x1="0"
   y1="448"
   x2="512"
   y2="448"
   id="line12"
   style="fill:none;stroke:#a9ccdb;stroke-miterlimit:10" />
				<line
   stroke-miterlimit="10"
   x1="0"
   y1="416"
   x2="512"
   y2="416"
   id="line14"
   style="fill:none;stroke:#a9ccdb;stroke-miterlimit:10" />
				<line
   stroke-miterlimit="10"
   x1="0"
   y1="384"
   x2="512"
   y2="384"
   id="line16"
   style="fill:none;stroke:#a9ccdb;stroke-miterlimit:10" />
				<line
   stroke-miterlimit="10"
   x1="0"
   y1="352"
   x2="512"
   y2="352"
   id="line18"
   style="fill:none;stroke:#a9ccdb;stroke-miterlimit:10" />
				<line
   stroke-miterlimit="10"
   x1="0"
   y1="320"
   x2="512"
   y2="320"
   id="line20"
   style="fill:none;stroke:#a9ccdb;stroke-miterlimit:10" />
				<line
   stroke-miterlimit="10"
   x1="0"
   y1="288"
   x2="512"
   y2="288"
   id="line22"
   style="fill:none;stroke:#a9ccdb;stroke-miterlimit:10" />
				<line
   stroke-miterlimit="10"
   x1="0"
   y1="256"
   x2="512"
   y2="256"
   id="line24"
   style="fill:none;stroke:#a9ccdb;stroke-miterlimit:10" />
				<line
   stroke-miterlimit="10"
   x1="0"
   y1="224"
   x2="512"
   y2="224"
   id="line26"
   style="fill:none;stroke:#a9ccdb;stroke-miterlimit:10" />
				<line
   stroke-miterlimit="10"
   x1="0"
   y1="192"
   x2="512"
   y2="192"
   id="line28"
   style="fill:none;stroke:#a9ccdb;stroke-miterlimit:10" />
				<line
   stroke-miterlimit="10"
   x1="0"
   y1="160"
   x2="512"
   y2="160"
   id="line30"
   style="fill:none;stroke:#a9ccdb;stroke-miterlimit:10" />
				<line
   stroke-miterlimit="10"
   x1="0"
   y1="128"
   x2="512"
   y2="128"
   id="line32"
   style="fill:none;stroke:#a9ccdb;stroke-miterlimit:10" />
				<line
   stroke-miterlimit="10"
   x1="0"
   y1="96"
   x2="512"
   y2="96"
   id="line34"
   style="fill:none;stroke:#a9ccdb;stroke-miterlimit:10" />
				<line
   stroke-miterlimit="10"
   x1="0"
   y1="64"
   x2="512"
   y2="64"
   id="line36"
   style="fill:none;stroke:#a9ccdb;stroke-miterlimit:10" />
				<line
   stroke-miterlimit="10"
   x1="0"
   y1="32"
   x2="512"
   y2="32"
   id="line38"
   style="fill:none;stroke:#a9ccdb;stroke-miterlimit:10" />
				<line
   stroke-miterlimit="10"
   x1="480"
   y1="0"
   x2="480"
   y2="512"
   id="line40"
   style="fill:none;stroke:#a9ccdb;stroke-miterlimit:10" />
				<line
   stroke-miterlimit="10"
   x1="448"
   y1="0"
   x2="448"
   y2="512"
   id="line42"
   style="fill:none;stroke:#a9ccdb;stroke-miterlimit:10" />
				<line
   stroke-miterlimit="10"
   x1="416"
   y1="0"
   x2="416"
   y2="512"
   id="line44"
   style="fill:none;stroke:#a9ccdb;stroke-miterlimit:10" />
				<line
   stroke-miterlimit="10"
   x1="384"
   y1="0"
   x2="384"
   y2="512"
   id="line46"
   style="fill:none;stroke:#a9ccdb;stroke-miterlimit:10" />
				<line
   stroke-miterlimit="10"
   x1="352"
   y1="0"
   x2="352"
   y2="512"
   id="line48"
   style="fill:none;stroke:#a9ccdb;stroke-miterlimit:10" />
				<line
   stroke-miterlimit="10"
   x1="320"
   y1="0"
   x2="320"
   y2="512"
   id="line50"
   style="fill:none;stroke:#a9ccdb;stroke-miterlimit:10" />
				<line
   stroke-miterlimit="10"
   x1="288"
   y1="0"
   x2="288"
   y2="512"
   id="line52"
   style="fill:none;stroke:#a9ccdb;stroke-miterlimit:10" />
				<line
   stroke-miterlimit="10"
   x1="256"
   y1="0"
   x2="256"
   y2="512"
   id="line54"
   style="fill:none;stroke:#a9ccdb;stroke-miterlimit:10" />
				<line
   stroke-miterlimit="10"
   x1="224"
   y1="0"
   x2="224"
   y2="512"
   id="line56"
   style="fill:none;stroke:#a9ccdb;stroke-miterlimit:10" />
				<line
   stroke-miterlimit="10"
   x1="192"
   y1="0"
   x2="192"
   y2="512"
   id="line58"
   style="fill:none;stroke:#a9ccdb;stroke-miterlimit:10" />
				<line
   stroke-miterlimit="10"
   x1="160"
   y1="0"
   x2="160"
   y2="512"
   id="line60"
   style="fill:none;stroke:#a9ccdb;stroke-miterlimit:10" />
				<line
   stroke-miterlimit="10"
   x1="128"
   y1="0"
   x2="128"
   y2="512"
   id="line62"
   style="fill:none;stroke:#a9ccdb;stroke-miterlimit:10" />
				<line
   stroke-miterlimit="10"
   x1="96"
   y1="0"
   x2="96"
   y2="512"
   id="line64"
   style="fill:none;stroke:#a9ccdb;stroke-miterlimit:10" />
				<line
   stroke-miterlimit="10"
   x1="64"
   y1="0"
   x2="64"
   y2="512"
   id="line66"
   style="fill:none;stroke:#a9ccdb;stroke-miterlimit:10" />
				<line
   stroke-miterlimit="10"
   x1="32"
   y1="0"
   x2="32"
   y2="512"
   id="line68"
   style="fill:none;stroke:#a9ccdb;stroke-miterlimit:10" />
			</g>
		</g>
	</g>
</g>
<rect
   style="fill:#ffffff;fill-opacity:1;stroke:none"
   id="rect3022"
   width="429.55933"
   height="429.2583"
   x="40.372871"
   y="41.521366" /><g
   id="g70"
   transform="matrix(0.953125,0,0,0.953125,12,12)"
   style="fill:#227aa1;fill-opacity:1">
	<path
   d="m 259.555,273.729 -60.828,176.742 c 18.164,5.343 37.372,8.262 57.269,8.262 23.608,0 46.251,-4.077 67.321,-11.492 -0.539,-0.868 -1.039,-1.793 -1.45,-2.795 L 259.555,273.729 z"
   id="path72"
   inkscape:connector-curvature="0"
   style="fill:#227aa1;fill-opacity:1" />
	<path
   d="m 392.852,245.768 c 0,-25.062 -9.006,-42.405 -16.718,-55.905 -10.273,-16.708 -19.912,-30.843 -19.912,-47.55 0,-18.631 14.13,-35.979 34.045,-35.979 0.896,0 1.753,0.108 2.624,0.165 -36.064,-33.048 -84.119,-53.225 -136.896,-53.225 -70.82,0 -133.129,36.34 -169.376,91.371 4.757,0.153 9.242,0.244 13.044,0.244 21.197,0 54.028,-2.576 54.028,-2.576 10.928,-0.639 12.213,15.416 1.299,16.707 0,0 -10.985,1.282 -23.198,1.928 l 73.816,219.589 44.371,-133.05 -31.584,-86.541 c -10.92,-0.645 -21.262,-1.926 -21.262,-1.926 -10.927,-0.646 -9.645,-17.347 1.288,-16.707 0,0 33.47,2.576 53.391,2.576 21.199,0 54.03,-2.576 54.03,-2.576 10.931,-0.64 12.218,15.414 1.297,16.707 0,0 -10.999,1.281 -23.202,1.926 l 73.262,217.916 20.229,-67.559 c 8.751,-28.051 15.424,-48.185 15.424,-65.535 z"
   id="path74"
   inkscape:connector-curvature="0"
   style="fill:#227aa1;fill-opacity:1" />
	<path
   d="m 357.915,431.219 c 60.269,-35.14 100.803,-100.438 100.803,-175.227 0,-35.246 -9.005,-68.381 -24.831,-97.254 0.871,6.455 1.366,13.382 1.366,20.847 0,20.564 -3.854,43.688 -15.416,72.609 l -61.922,179.025 z"
   id="path76"
   inkscape:connector-curvature="0"
   style="fill:#227aa1;fill-opacity:1" />
	<path
   d="m 53.277,255.992 c 0,80.24 46.624,149.592 114.258,182.448 L 70.83,173.49 c -11.253,25.211 -17.553,53.111 -17.553,82.502 z"
   id="path78"
   inkscape:connector-curvature="0"
   style="fill:#227aa1;fill-opacity:1" />
	<path
   d="M 426.688,0 H 85.346 C 38.406,0 0,38.406 0,85.341 V 426.654 C 0,473.624 38.406,512 85.346,512 H 426.688 C 473.622,512 512,473.624 512,426.654 V 85.341 C 512,38.406 473.622,0 426.688,0 z M 255.993,481.48 C 131.666,481.48 30.517,380.324 30.517,255.992 30.517,131.668 131.664,30.517 255.993,30.517 380.32,30.517 481.477,131.666 481.477,255.992 481.48,380.324 380.322,481.48 255.993,481.48 z"
   id="path80"
   inkscape:connector-curvature="0"
   style="fill:#227aa1;fill-opacity:1" />
</g>
</svg>